<svg xmlns="http://www.w3.org/2000/svg" viewBox="0 0 64 64" role="img" aria-label="LustForge">
  <defs>
    <linearGradient id="lf" x1="12" y1="8" x2="52" y2="56" gradientUnits="userSpaceOnUse">
      <stop stop-color="#FF2D7B"/>
      <stop offset="0.55" stop-color="#7B2D8E"/>
      <stop offset="1" stop-color="#00E5C8"/>
    </linearGradient>
    <filter id="g" x="-20%" y="-20%" width="140%" height="140%">
      <feGaussianBlur stdDeviation="1.2" result="b"/>
      <feMerge><feMergeNode in="b"/><feMergeNode in="SourceGraphic"/></feMerge>
    </filter>
  </defs>
  <rect width="64" height="64" rx="14" fill="#050508"/>
  <path
    filter="url(#g)"
    fill="url(#lf)"
    d="M32 8c-2 6-8 10-8 18 0 6 4 11 8 22 4-11 8-16 8-22 0-8-6-12-8-18zm-6 26c-4 4-6 10-6 16 0 6 5 10 14 12-6-6-8-12-8-28zm12 0c0 16-2 22-8 28 9-2 14-6 14-12 0-6-2-12-6-16z"
  />
</svg>
